<svg xmlns="http://www.w3.org/2000/svg" viewBox="0 0 130.8 180.63"><g id="katman_2"><g id="katman_1-2"><path d="M130.6,120.93a13.55,13.55,0,0,0-.2-2,45.44,45.44,0,0,0-.8-5.5,34.74,34.74,0,0,0-7.4-15.6c-6.2-7.6-16.6-14.4-33.5-21.5L68.9,68c-9.3-3.9-15.8-7.8-19.9-12.3a21.45,21.45,0,0,1-5.7-13.6c0-.7-.1-1.4-.1-2.2v-1.2c0-.4.1-.9.1-1.3a22.73,22.73,0,0,1,8.2-15.5c5.5-4.5,13.5-7,23.6-7,9.7,0,19.6,2.3,26.1,6.9a3.37,3.37,0,0,1,1.4,2.8l-.3,11.1-.1,16.4v.1c4.1.8,7.4.2,9.8-1.2,2.8-1.7,4.9-4.8,5.8-9.9h0L123.4,10h0C111.6,3.93,93.2-.37,77.1,0H77c-24.7-.4-41.7,5.5-52.5,15C16.8,21.83,12,30.73,10,41.23v.1a50.32,50.32,0,0,0-.8,5.6c0,.5-.1,1-.1,1.5a57.18,57.18,0,0,0-.2,5.9c0,1.6.1,3.2.2,4.7A39.2,39.2,0,0,0,15,77.73c4.5,7.1,12,13.9,24.6,20.2l13.8,6.9c14.7,7.4,24.5,13.1,30.5,18.4a26.78,26.78,0,0,1,6.8,8.3,15.07,15.07,0,0,1,1.3,3.3c.1.4.2.8.3,1.1a18.61,18.61,0,0,1,.4,3.4v1.2c0,5.9-1.8,11.8-6.4,16.2s-11.6,6.9-21.1,6.9c-10.5,0-19.8-3.4-27.2-10.5-6.8-6.5-11.7-15.8-14.7-27.7-9.7,1.3-15.3,4.3-18.5,8-2.9,3.3-4.2,7.6-4.7,12.7-.1,1.2-.1,2.4-.1,3.6a8.6,8.6,0,0,0,.1,1.6c.5,8,5.1,14.9,14.6,20.2,10.2,5.6,26,9.1,47.8,9.1,22.2,0,39.3-6.4,50.7-16.4a50.83,50.83,0,0,0,17.4-35c.1-1.4.2-2.8.2-4.3S130.6,122.23,130.6,120.93Zm-37.9-8.2c-6.6-5.8-16.3-11.6-33.4-20.3l-13.8-6.9c-9.3-4.6-15.7-9.8-19.1-15.2-2.7-4.3-4-9.3-4-16.1,0-8.9,1.7-16,5.2-21.9L31.3,26l-1.2,7.2a37.1,37.1,0,0,0-.6,6.7c0,9.7,3.1,18.1,9.3,24.9,5.4,6,13.1,10.8,24.8,15.7l19.8,8.2c14.2,5.9,23.4,11.7,28.2,17.6,2.8,3.4,5.4,8,5.4,18.5a37.77,37.77,0,0,1-9.3,25.5l-3.6,4,1.2-5.2a36.79,36.79,0,0,0,1-8.9,33.15,33.15,0,0,0-3.6-15.3A41.07,41.07,0,0,0,92.7,112.73Z"/></g></g></svg>
